<mxfile host="app.diagrams.net" modified="2022-09-30T06:16:49.921Z" agent="5.0 (Windows)" etag="D0nIZe-DwfbFL5b_XAyG" version="20.3.7" type="github">
  <diagram id="pfzkPj6grNJwBlnFIqPR" name="第 1 页">
    <mxGraphModel dx="2031" dy="2243" grid="1" gridSize="10" guides="1" tooltips="1" connect="1" arrows="1" fold="1" page="1" pageScale="1" pageWidth="827" pageHeight="1169" math="0" shadow="0">
      <root>
        <mxCell id="0" />
        <mxCell id="1" parent="0" />
        <mxCell id="nGB8i2fk9DRMah0tXauJ-20" value="MapperProxyFactory" style="swimlane;fontStyle=1;align=center;verticalAlign=top;childLayout=stackLayout;horizontal=1;startSize=30;horizontalStack=0;resizeParent=1;resizeParentMax=0;resizeLast=0;collapsible=0;marginBottom=0;html=1;sketch=1;fillColor=#dae8fc;strokeColor=#6c8ebf;" parent="1" vertex="1">
          <mxGeometry x="1010" y="90" width="200" height="90" as="geometry" />
        </mxCell>
        <mxCell id="nGB8i2fk9DRMah0tXauJ-28" value="" style="swimlane;fontStyle=1;align=center;verticalAlign=top;horizontal=1;startSize=0;collapsible=0;marginBottom=0;html=1;strokeColor=none;fillColor=none;sketch=1;" parent="nGB8i2fk9DRMah0tXauJ-20" vertex="1">
          <mxGeometry y="30" width="200" height="60" as="geometry" />
        </mxCell>
        <mxCell id="nGB8i2fk9DRMah0tXauJ-29" value="newInstance(Sqlsession)" style="html=1;align=center;verticalAlign=middle;rotatable=0;sketch=1;dashed=1;" parent="nGB8i2fk9DRMah0tXauJ-28" vertex="1">
          <mxGeometry width="160" height="30" relative="1" as="geometry">
            <mxPoint x="20" y="10" as="offset" />
          </mxGeometry>
        </mxCell>
        <mxCell id="nGB8i2fk9DRMah0tXauJ-39" value="MapperProxy" style="swimlane;fontStyle=1;align=center;verticalAlign=top;childLayout=stackLayout;horizontal=1;startSize=30;horizontalStack=0;resizeParent=1;resizeParentMax=0;resizeLast=0;collapsible=0;marginBottom=0;html=1;sketch=1;fillColor=#dae8fc;strokeColor=#6c8ebf;" parent="1" vertex="1">
          <mxGeometry x="1010" y="230" width="310" height="240" as="geometry" />
        </mxCell>
        <mxCell id="nGB8i2fk9DRMah0tXauJ-41" value="" style="swimlane;fontStyle=1;align=center;verticalAlign=top;horizontal=1;startSize=0;collapsible=0;marginBottom=0;html=1;strokeColor=none;fillColor=none;sketch=1;" parent="nGB8i2fk9DRMah0tXauJ-39" vertex="1">
          <mxGeometry y="30" width="310" height="210" as="geometry" />
        </mxCell>
        <mxCell id="nGB8i2fk9DRMah0tXauJ-38" value="Map&lt;Method, MapperMethod&gt;" style="fontStyle=0;sketch=1;" parent="nGB8i2fk9DRMah0tXauJ-41" vertex="1">
          <mxGeometry x="9.07" y="90" width="290.93" height="30" as="geometry" />
        </mxCell>
        <mxCell id="nGB8i2fk9DRMah0tXauJ-90" value="invoke(Object proxy, Method method, Object[] args)" style="html=1;align=center;verticalAlign=middle;rotatable=0;sketch=1;dashed=1;" parent="nGB8i2fk9DRMah0tXauJ-41" vertex="1">
          <mxGeometry x="9.07" y="130" width="290.93" height="30" as="geometry" />
        </mxCell>
        <mxCell id="0mpj7hp0uQMTaxLMq2Nd-71" value="SqlSession" style="fontStyle=0;sketch=1;" parent="nGB8i2fk9DRMah0tXauJ-41" vertex="1">
          <mxGeometry x="9.060000000000173" y="10" width="291.87" height="30" as="geometry" />
        </mxCell>
        <mxCell id="0mpj7hp0uQMTaxLMq2Nd-72" value="mapperInterface: Class&lt;T&gt;" style="fontStyle=0;sketch=1;" parent="nGB8i2fk9DRMah0tXauJ-41" vertex="1">
          <mxGeometry x="9.060000000000173" y="50" width="291.87" height="30" as="geometry" />
        </mxCell>
        <mxCell id="0mpj7hp0uQMTaxLMq2Nd-75" value="cachedMapperMethod(Method method)" style="html=1;align=center;verticalAlign=middle;rotatable=0;sketch=1;dashed=1;" parent="nGB8i2fk9DRMah0tXauJ-41" vertex="1">
          <mxGeometry x="10.000000000000114" y="170" width="290.93" height="30" as="geometry" />
        </mxCell>
        <mxCell id="nGB8i2fk9DRMah0tXauJ-46" value="MapperRegistry" style="swimlane;fontStyle=1;align=center;verticalAlign=top;childLayout=stackLayout;horizontal=1;startSize=30;horizontalStack=0;resizeParent=1;resizeParentMax=0;resizeLast=0;collapsible=0;marginBottom=0;html=1;sketch=1;fillColor=#dae8fc;strokeColor=#6c8ebf;" parent="1" vertex="1">
          <mxGeometry x="1010" y="-150" width="250" height="170" as="geometry" />
        </mxCell>
        <mxCell id="nGB8i2fk9DRMah0tXauJ-47" value="" style="swimlane;fontStyle=1;align=center;verticalAlign=top;horizontal=1;startSize=0;collapsible=0;marginBottom=0;html=1;strokeColor=none;fillColor=none;sketch=1;" parent="nGB8i2fk9DRMah0tXauJ-46" vertex="1">
          <mxGeometry y="30" width="250" height="140" as="geometry" />
        </mxCell>
        <mxCell id="nGB8i2fk9DRMah0tXauJ-48" value="Map&lt;Class&lt;?&gt;, MapperProxyFactory&lt;?&gt;&gt;" style="fontStyle=0;sketch=1;" parent="nGB8i2fk9DRMah0tXauJ-47" vertex="1">
          <mxGeometry x="6.25" y="10" width="237.5" height="30" as="geometry" />
        </mxCell>
        <mxCell id="0mpj7hp0uQMTaxLMq2Nd-52" value="addMapper(Class&amp;lt;T&amp;gt; type)" style="html=1;align=center;verticalAlign=middle;rotatable=0;sketch=1;dashed=1;" parent="nGB8i2fk9DRMah0tXauJ-47" vertex="1">
          <mxGeometry x="10" y="55" width="230" height="30" as="geometry" />
        </mxCell>
        <mxCell id="0mpj7hp0uQMTaxLMq2Nd-82" value="getMapper(Class&amp;lt;T&amp;gt; type)" style="html=1;align=center;verticalAlign=middle;rotatable=0;sketch=1;dashed=1;" parent="nGB8i2fk9DRMah0tXauJ-47" vertex="1">
          <mxGeometry x="10" y="100" width="230" height="30" as="geometry" />
        </mxCell>
        <mxCell id="nGB8i2fk9DRMah0tXauJ-53" value="MapperMethod" style="swimlane;fontStyle=1;align=center;verticalAlign=top;childLayout=stackLayout;horizontal=1;startSize=30;horizontalStack=0;resizeParent=1;resizeParentMax=0;resizeLast=0;collapsible=0;marginBottom=0;html=1;sketch=1;fillColor=#dae8fc;strokeColor=#6c8ebf;" parent="1" vertex="1">
          <mxGeometry x="635" y="210" width="200" height="130" as="geometry" />
        </mxCell>
        <mxCell id="nGB8i2fk9DRMah0tXauJ-54" value="" style="swimlane;fontStyle=1;align=center;verticalAlign=top;horizontal=1;startSize=0;collapsible=0;marginBottom=0;html=1;strokeColor=none;fillColor=none;sketch=1;" parent="nGB8i2fk9DRMah0tXauJ-53" vertex="1">
          <mxGeometry y="30" width="200" height="100" as="geometry" />
        </mxCell>
        <mxCell id="nGB8i2fk9DRMah0tXauJ-55" value="SqlCommand" style="fontStyle=0;sketch=1;" parent="nGB8i2fk9DRMah0tXauJ-54" vertex="1">
          <mxGeometry x="12.5" y="10" width="177.5" height="30" as="geometry" />
        </mxCell>
        <mxCell id="nGB8i2fk9DRMah0tXauJ-56" value="execute(SqlSession,Object[])" style="html=1;align=center;verticalAlign=middle;rotatable=0;sketch=1;dashed=1;" parent="nGB8i2fk9DRMah0tXauJ-54" vertex="1">
          <mxGeometry x="12.5" y="55" width="177.5" height="30" as="geometry" />
        </mxCell>
        <mxCell id="nGB8i2fk9DRMah0tXauJ-65" value="SqlSessionFactory" style="swimlane;fontStyle=1;align=center;verticalAlign=top;childLayout=stackLayout;horizontal=1;startSize=30;horizontalStack=0;resizeParent=1;resizeParentMax=0;resizeLast=0;collapsible=0;marginBottom=0;html=1;sketch=1;fillColor=#d5e8d4;strokeColor=#82b366;" parent="1" vertex="1">
          <mxGeometry x="155" y="-680" width="140" height="90" as="geometry" />
        </mxCell>
        <mxCell id="nGB8i2fk9DRMah0tXauJ-66" value="" style="swimlane;fontStyle=1;align=center;verticalAlign=top;horizontal=1;startSize=0;collapsible=0;marginBottom=0;html=1;strokeColor=none;fillColor=none;sketch=1;" parent="nGB8i2fk9DRMah0tXauJ-65" vertex="1">
          <mxGeometry y="30" width="140" height="60" as="geometry" />
        </mxCell>
        <mxCell id="nGB8i2fk9DRMah0tXauJ-67" value="openSession()" style="html=1;align=center;verticalAlign=middle;rotatable=0;sketch=1;dashed=1;" parent="nGB8i2fk9DRMah0tXauJ-66" vertex="1">
          <mxGeometry width="100" height="30" relative="1" as="geometry">
            <mxPoint x="20" y="10" as="offset" />
          </mxGeometry>
        </mxCell>
        <mxCell id="nGB8i2fk9DRMah0tXauJ-71" value="Configuation" style="swimlane;fontStyle=1;align=center;verticalAlign=top;childLayout=stackLayout;horizontal=1;startSize=30;horizontalStack=0;resizeParent=1;resizeParentMax=0;resizeLast=0;collapsible=0;marginBottom=0;html=1;sketch=1;fillColor=#dae8fc;strokeColor=#6c8ebf;" parent="1" vertex="1">
          <mxGeometry x="1010" y="-490" width="280" height="280" as="geometry" />
        </mxCell>
        <mxCell id="nGB8i2fk9DRMah0tXauJ-72" value="" style="swimlane;fontStyle=1;align=center;verticalAlign=top;horizontal=1;startSize=0;collapsible=0;marginBottom=0;html=1;strokeColor=none;fillColor=none;sketch=1;" parent="nGB8i2fk9DRMah0tXauJ-71" vertex="1">
          <mxGeometry y="30" width="280" height="250" as="geometry" />
        </mxCell>
        <mxCell id="nGB8i2fk9DRMah0tXauJ-73" value="MapperRegistry" style="fontStyle=0;sketch=1;" parent="nGB8i2fk9DRMah0tXauJ-72" vertex="1">
          <mxGeometry x="6.25" y="10" width="263.75" height="30" as="geometry" />
        </mxCell>
        <mxCell id="nGB8i2fk9DRMah0tXauJ-74" value="Map&lt;String, MappedStatement&gt;" style="fontStyle=0;sketch=1;" parent="nGB8i2fk9DRMah0tXauJ-72" vertex="1">
          <mxGeometry x="6.25" y="60" width="263.75" height="30" as="geometry" />
        </mxCell>
        <mxCell id="0mpj7hp0uQMTaxLMq2Nd-53" value="addMapper(Class&amp;lt;T&amp;gt; type)" style="html=1;align=center;verticalAlign=middle;rotatable=0;sketch=1;dashed=1;" parent="nGB8i2fk9DRMah0tXauJ-72" vertex="1">
          <mxGeometry x="10" y="110" width="260" height="30" as="geometry" />
        </mxCell>
        <mxCell id="0mpj7hp0uQMTaxLMq2Nd-54" value="addMappedStatement(MappedStatement ms)" style="html=1;align=center;verticalAlign=middle;rotatable=0;sketch=1;dashed=1;" parent="nGB8i2fk9DRMah0tXauJ-72" vertex="1">
          <mxGeometry x="10" y="160" width="260" height="30" as="geometry" />
        </mxCell>
        <mxCell id="0mpj7hp0uQMTaxLMq2Nd-81" value="getMapper(Class&amp;lt;T&amp;gt; type)" style="html=1;align=center;verticalAlign=middle;rotatable=0;sketch=1;dashed=1;" parent="nGB8i2fk9DRMah0tXauJ-72" vertex="1">
          <mxGeometry x="10.000000000000114" y="210" width="261.87" height="30" as="geometry" />
        </mxCell>
        <mxCell id="nGB8i2fk9DRMah0tXauJ-75" value="SqlSessionFactoryBuilder" style="swimlane;fontStyle=1;align=center;verticalAlign=top;childLayout=stackLayout;horizontal=1;startSize=30;horizontalStack=0;resizeParent=1;resizeParentMax=0;resizeLast=0;collapsible=0;marginBottom=0;html=1;sketch=1;fillColor=#dae8fc;strokeColor=#6c8ebf;" parent="1" vertex="1">
          <mxGeometry x="145" y="-880" width="160" height="130" as="geometry" />
        </mxCell>
        <mxCell id="nGB8i2fk9DRMah0tXauJ-76" value="" style="swimlane;fontStyle=1;align=center;verticalAlign=top;horizontal=1;startSize=0;collapsible=0;marginBottom=0;html=1;strokeColor=none;fillColor=none;sketch=1;" parent="nGB8i2fk9DRMah0tXauJ-75" vertex="1">
          <mxGeometry y="30" width="160" height="100" as="geometry" />
        </mxCell>
        <mxCell id="nGB8i2fk9DRMah0tXauJ-77" value="builder(Reader)" style="html=1;align=center;verticalAlign=middle;rotatable=0;sketch=1;dashed=1;" parent="nGB8i2fk9DRMah0tXauJ-76" vertex="1">
          <mxGeometry width="120" height="30" relative="1" as="geometry">
            <mxPoint x="20" y="10" as="offset" />
          </mxGeometry>
        </mxCell>
        <mxCell id="nGB8i2fk9DRMah0tXauJ-78" value="builder(Configuration)" style="html=1;align=center;verticalAlign=middle;rotatable=0;sketch=1;dashed=1;" parent="nGB8i2fk9DRMah0tXauJ-76" vertex="1">
          <mxGeometry x="15" y="60" width="130" height="30" as="geometry" />
        </mxCell>
        <mxCell id="nGB8i2fk9DRMah0tXauJ-92" value="&lt;b&gt;XMLConfigBuilder&lt;/b&gt;" style="swimlane;fontStyle=1;align=center;verticalAlign=top;childLayout=stackLayout;horizontal=1;startSize=30;horizontalStack=0;resizeParent=1;resizeParentMax=0;resizeLast=0;collapsible=0;marginBottom=0;html=1;sketch=1;fillColor=#dae8fc;strokeColor=#6c8ebf;" parent="1" vertex="1">
          <mxGeometry x="545" y="-880" width="260" height="130" as="geometry" />
        </mxCell>
        <mxCell id="nGB8i2fk9DRMah0tXauJ-93" value="" style="swimlane;fontStyle=1;align=center;verticalAlign=top;horizontal=1;startSize=0;collapsible=0;marginBottom=0;html=1;strokeColor=none;fillColor=none;sketch=1;" parent="nGB8i2fk9DRMah0tXauJ-92" vertex="1">
          <mxGeometry y="30" width="260" height="100" as="geometry" />
        </mxCell>
        <mxCell id="0mpj7hp0uQMTaxLMq2Nd-2" style="edgeStyle=orthogonalEdgeStyle;curved=1;rounded=0;orthogonalLoop=1;jettySize=auto;html=1;exitX=1;exitY=0.5;exitDx=0;exitDy=0;entryX=1;entryY=0;entryDx=0;entryDy=0;endArrow=block;endFill=0;sketch=1;" parent="nGB8i2fk9DRMah0tXauJ-93" source="nGB8i2fk9DRMah0tXauJ-94" target="nGB8i2fk9DRMah0tXauJ-95" edge="1">
          <mxGeometry relative="1" as="geometry" />
        </mxCell>
        <mxCell id="nGB8i2fk9DRMah0tXauJ-94" value="parse()" style="html=1;align=center;verticalAlign=middle;rotatable=0;sketch=1;dashed=1;" parent="nGB8i2fk9DRMah0tXauJ-93" vertex="1">
          <mxGeometry width="120" height="30" relative="1" as="geometry">
            <mxPoint x="70" y="10" as="offset" />
          </mxGeometry>
        </mxCell>
        <mxCell id="nGB8i2fk9DRMah0tXauJ-95" value="mapperElement(Element Mappers)" style="html=1;align=center;verticalAlign=middle;rotatable=0;sketch=1;dashed=1;" parent="nGB8i2fk9DRMah0tXauJ-93" vertex="1">
          <mxGeometry x="27.5" y="55" width="205" height="30" as="geometry" />
        </mxCell>
        <mxCell id="0mpj7hp0uQMTaxLMq2Nd-49" style="edgeStyle=orthogonalEdgeStyle;curved=1;rounded=0;sketch=1;orthogonalLoop=1;jettySize=auto;html=1;exitX=0.96;exitY=0.7;exitDx=0;exitDy=0;exitPerimeter=0;entryX=-0.01;entryY=0.129;entryDx=0;entryDy=0;entryPerimeter=0;endArrow=block;endFill=0;" parent="1" source="nGB8i2fk9DRMah0tXauJ-98" target="0mpj7hp0uQMTaxLMq2Nd-45" edge="1">
          <mxGeometry relative="1" as="geometry" />
        </mxCell>
        <mxCell id="0mpj7hp0uQMTaxLMq2Nd-55" value="解析出每条sql语句&lt;br&gt;将该sql各个信息包装成一个对象" style="edgeLabel;html=1;align=center;verticalAlign=middle;resizable=0;points=[];" parent="0mpj7hp0uQMTaxLMq2Nd-49" vertex="1" connectable="0">
          <mxGeometry x="-0.0546" y="2" relative="1" as="geometry">
            <mxPoint as="offset" />
          </mxGeometry>
        </mxCell>
        <mxCell id="0mpj7hp0uQMTaxLMq2Nd-60" style="edgeStyle=orthogonalEdgeStyle;curved=1;rounded=0;sketch=1;orthogonalLoop=1;jettySize=auto;html=1;exitX=0.96;exitY=0.7;exitDx=0;exitDy=0;exitPerimeter=0;entryX=0;entryY=0.5;entryDx=0;entryDy=0;endArrow=block;endFill=0;" parent="1" source="nGB8i2fk9DRMah0tXauJ-98" target="0mpj7hp0uQMTaxLMq2Nd-59" edge="1">
          <mxGeometry relative="1" as="geometry" />
        </mxCell>
        <mxCell id="0mpj7hp0uQMTaxLMq2Nd-61" value="解析出每个Mapper文件对应的class文件" style="edgeLabel;html=1;align=center;verticalAlign=middle;resizable=0;points=[];" parent="0mpj7hp0uQMTaxLMq2Nd-60" vertex="1" connectable="0">
          <mxGeometry x="0.1" y="1" relative="1" as="geometry">
            <mxPoint as="offset" />
          </mxGeometry>
        </mxCell>
        <mxCell id="nGB8i2fk9DRMah0tXauJ-98" value="解析xml文件" style="ellipse;shape=cloud;whiteSpace=wrap;html=1;sketch=1;dashed=1;" parent="1" vertex="1">
          <mxGeometry x="865" y="-860" width="120" height="80" as="geometry" />
        </mxCell>
        <mxCell id="nGB8i2fk9DRMah0tXauJ-99" value="" style="edgeStyle=orthogonalEdgeStyle;curved=1;rounded=0;sketch=1;orthogonalLoop=1;jettySize=auto;html=1;entryX=0.042;entryY=0.402;entryDx=0;entryDy=0;entryPerimeter=0;" parent="1" source="nGB8i2fk9DRMah0tXauJ-95" target="nGB8i2fk9DRMah0tXauJ-98" edge="1">
          <mxGeometry relative="1" as="geometry" />
        </mxCell>
        <mxCell id="0mpj7hp0uQMTaxLMq2Nd-1" style="edgeStyle=orthogonalEdgeStyle;rounded=0;orthogonalLoop=1;jettySize=auto;html=1;exitX=1;exitY=0.5;exitDx=0;exitDy=0;entryX=0;entryY=0.5;entryDx=0;entryDy=0;curved=1;endArrow=block;endFill=0;sketch=1;" parent="1" source="nGB8i2fk9DRMah0tXauJ-77" target="nGB8i2fk9DRMah0tXauJ-94" edge="1">
          <mxGeometry relative="1" as="geometry" />
        </mxCell>
        <mxCell id="0mpj7hp0uQMTaxLMq2Nd-40" value="获取Configuration" style="edgeLabel;html=1;align=center;verticalAlign=middle;resizable=0;points=[];" parent="0mpj7hp0uQMTaxLMq2Nd-1" vertex="1" connectable="0">
          <mxGeometry x="-0.1646" relative="1" as="geometry">
            <mxPoint as="offset" />
          </mxGeometry>
        </mxCell>
        <mxCell id="0mpj7hp0uQMTaxLMq2Nd-37" style="edgeStyle=orthogonalEdgeStyle;curved=1;rounded=0;sketch=1;orthogonalLoop=1;jettySize=auto;html=1;exitX=0;exitY=0.107;exitDx=0;exitDy=0;entryX=1.002;entryY=0.148;entryDx=0;entryDy=0;entryPerimeter=0;endArrow=block;endFill=0;exitPerimeter=0;" parent="1" source="0mpj7hp0uQMTaxLMq2Nd-6" target="nGB8i2fk9DRMah0tXauJ-65" edge="1">
          <mxGeometry relative="1" as="geometry" />
        </mxCell>
        <mxCell id="0mpj7hp0uQMTaxLMq2Nd-41" value="实现" style="edgeLabel;html=1;align=center;verticalAlign=middle;resizable=0;points=[];" parent="0mpj7hp0uQMTaxLMq2Nd-37" vertex="1" connectable="0">
          <mxGeometry x="-0.0745" y="2" relative="1" as="geometry">
            <mxPoint as="offset" />
          </mxGeometry>
        </mxCell>
        <mxCell id="0mpj7hp0uQMTaxLMq2Nd-6" value="DefaultSqlSessionFactory" style="swimlane;fontStyle=1;align=center;verticalAlign=top;childLayout=stackLayout;horizontal=1;startSize=30;horizontalStack=0;resizeParent=1;resizeParentMax=0;resizeLast=0;collapsible=0;marginBottom=0;html=1;sketch=1;fillColor=#dae8fc;strokeColor=#6c8ebf;" parent="1" vertex="1">
          <mxGeometry x="545" y="-680" width="200" height="140" as="geometry" />
        </mxCell>
        <mxCell id="0mpj7hp0uQMTaxLMq2Nd-7" value="" style="swimlane;fontStyle=1;align=center;verticalAlign=top;horizontal=1;startSize=0;collapsible=0;marginBottom=0;html=1;strokeColor=none;fillColor=none;sketch=1;" parent="0mpj7hp0uQMTaxLMq2Nd-6" vertex="1">
          <mxGeometry y="30" width="200" height="110" as="geometry" />
        </mxCell>
        <mxCell id="0mpj7hp0uQMTaxLMq2Nd-8" value="openSession()" style="html=1;align=center;verticalAlign=middle;rotatable=0;sketch=1;dashed=1;" parent="0mpj7hp0uQMTaxLMq2Nd-7" vertex="1">
          <mxGeometry width="160" height="30" relative="1" as="geometry">
            <mxPoint x="20" y="60" as="offset" />
          </mxGeometry>
        </mxCell>
        <mxCell id="0mpj7hp0uQMTaxLMq2Nd-10" value="Configuation" style="fontStyle=0;sketch=1;" parent="0mpj7hp0uQMTaxLMq2Nd-7" vertex="1">
          <mxGeometry x="20" y="15" width="160" height="30" as="geometry" />
        </mxCell>
        <mxCell id="0mpj7hp0uQMTaxLMq2Nd-18" value="SqlSession" style="swimlane;fontStyle=1;align=center;verticalAlign=top;childLayout=stackLayout;horizontal=1;startSize=30;horizontalStack=0;resizeParent=1;resizeParentMax=0;resizeLast=0;collapsible=0;marginBottom=0;html=1;sketch=1;fillColor=#d5e8d4;strokeColor=#82b366;" parent="1" vertex="1">
          <mxGeometry x="80" y="-490" width="290" height="230" as="geometry" />
        </mxCell>
        <mxCell id="0mpj7hp0uQMTaxLMq2Nd-19" value="" style="swimlane;fontStyle=1;align=center;verticalAlign=top;horizontal=1;startSize=0;collapsible=0;marginBottom=0;html=1;strokeColor=none;fillColor=none;sketch=1;" parent="0mpj7hp0uQMTaxLMq2Nd-18" vertex="1">
          <mxGeometry y="30" width="290" height="200" as="geometry" />
        </mxCell>
        <mxCell id="0mpj7hp0uQMTaxLMq2Nd-20" value="selectOne(String statement)" style="html=1;align=center;verticalAlign=middle;rotatable=0;sketch=1;dashed=1;" parent="0mpj7hp0uQMTaxLMq2Nd-19" vertex="1">
          <mxGeometry width="270" height="30" relative="1" as="geometry">
            <mxPoint x="10" y="10" as="offset" />
          </mxGeometry>
        </mxCell>
        <mxCell id="0mpj7hp0uQMTaxLMq2Nd-21" value="selectOne(String statement,Object parameter)" style="html=1;align=center;verticalAlign=middle;rotatable=0;sketch=1;dashed=1;" parent="0mpj7hp0uQMTaxLMq2Nd-19" vertex="1">
          <mxGeometry x="12.5" y="60" width="267.5" height="30" as="geometry" />
        </mxCell>
        <mxCell id="0mpj7hp0uQMTaxLMq2Nd-25" value="getMapper(Class&amp;lt;T&amp;gt; type)" style="html=1;align=center;verticalAlign=middle;rotatable=0;sketch=1;dashed=1;" parent="0mpj7hp0uQMTaxLMq2Nd-19" vertex="1">
          <mxGeometry x="12.5" y="110" width="267.5" height="30" as="geometry" />
        </mxCell>
        <mxCell id="0mpj7hp0uQMTaxLMq2Nd-26" value="getConfiguration()" style="html=1;align=center;verticalAlign=middle;rotatable=0;sketch=1;dashed=1;" parent="0mpj7hp0uQMTaxLMq2Nd-19" vertex="1">
          <mxGeometry x="12.5" y="160" width="267.5" height="30" as="geometry" />
        </mxCell>
        <mxCell id="0mpj7hp0uQMTaxLMq2Nd-39" style="edgeStyle=orthogonalEdgeStyle;curved=1;rounded=0;sketch=1;orthogonalLoop=1;jettySize=auto;html=1;exitX=-0.01;exitY=0.069;exitDx=0;exitDy=0;entryX=1.007;entryY=0.087;entryDx=0;entryDy=0;entryPerimeter=0;endArrow=block;endFill=0;exitPerimeter=0;" parent="1" source="0mpj7hp0uQMTaxLMq2Nd-27" target="0mpj7hp0uQMTaxLMq2Nd-18" edge="1">
          <mxGeometry relative="1" as="geometry" />
        </mxCell>
        <mxCell id="0mpj7hp0uQMTaxLMq2Nd-42" value="实现" style="edgeLabel;html=1;align=center;verticalAlign=middle;resizable=0;points=[];" parent="0mpj7hp0uQMTaxLMq2Nd-39" vertex="1" connectable="0">
          <mxGeometry x="0.1184" y="-1" relative="1" as="geometry">
            <mxPoint as="offset" />
          </mxGeometry>
        </mxCell>
        <mxCell id="0mpj7hp0uQMTaxLMq2Nd-27" value="DefaultSqlSession" style="swimlane;fontStyle=1;align=center;verticalAlign=top;childLayout=stackLayout;horizontal=1;startSize=30;horizontalStack=0;resizeParent=1;resizeParentMax=0;resizeLast=0;collapsible=0;marginBottom=0;html=1;sketch=1;fillColor=#dae8fc;strokeColor=#6c8ebf;" parent="1" vertex="1">
          <mxGeometry x="545" y="-490" width="290" height="290" as="geometry" />
        </mxCell>
        <mxCell id="0mpj7hp0uQMTaxLMq2Nd-28" value="" style="swimlane;fontStyle=1;align=center;verticalAlign=top;horizontal=1;startSize=0;collapsible=0;marginBottom=0;html=1;strokeColor=none;fillColor=none;sketch=1;" parent="0mpj7hp0uQMTaxLMq2Nd-27" vertex="1">
          <mxGeometry y="30" width="290" height="260" as="geometry" />
        </mxCell>
        <mxCell id="0mpj7hp0uQMTaxLMq2Nd-29" value="selectOne(String statement)" style="html=1;align=center;verticalAlign=middle;rotatable=0;sketch=1;dashed=1;" parent="0mpj7hp0uQMTaxLMq2Nd-28" vertex="1">
          <mxGeometry width="270" height="30" relative="1" as="geometry">
            <mxPoint x="10" y="60" as="offset" />
          </mxGeometry>
        </mxCell>
        <mxCell id="0mpj7hp0uQMTaxLMq2Nd-30" value="selectOne(String statement,Object parameter)" style="html=1;align=center;verticalAlign=middle;rotatable=0;sketch=1;dashed=1;" parent="0mpj7hp0uQMTaxLMq2Nd-28" vertex="1">
          <mxGeometry x="8.75" y="110" width="270" height="30" as="geometry" />
        </mxCell>
        <mxCell id="0mpj7hp0uQMTaxLMq2Nd-31" value="getMapper(Class&amp;lt;T&amp;gt; type)" style="html=1;align=center;verticalAlign=middle;rotatable=0;sketch=1;dashed=1;" parent="0mpj7hp0uQMTaxLMq2Nd-28" vertex="1">
          <mxGeometry x="10" y="160" width="267.5" height="30" as="geometry" />
        </mxCell>
        <mxCell id="0mpj7hp0uQMTaxLMq2Nd-32" value="getConfiguration()" style="html=1;align=center;verticalAlign=middle;rotatable=0;sketch=1;dashed=1;" parent="0mpj7hp0uQMTaxLMq2Nd-28" vertex="1">
          <mxGeometry x="8.75" y="210" width="266.87" height="30" as="geometry" />
        </mxCell>
        <mxCell id="0mpj7hp0uQMTaxLMq2Nd-35" value="Configuation" style="fontStyle=0;sketch=1;" parent="0mpj7hp0uQMTaxLMq2Nd-28" vertex="1">
          <mxGeometry x="10" y="10" width="270" height="30" as="geometry" />
        </mxCell>
        <mxCell id="0mpj7hp0uQMTaxLMq2Nd-34" value="依赖" style="edgeStyle=orthogonalEdgeStyle;curved=1;rounded=0;sketch=1;orthogonalLoop=1;jettySize=auto;html=1;exitX=0.5;exitY=1;exitDx=0;exitDy=0;entryX=0.5;entryY=0;entryDx=0;entryDy=0;endArrow=block;endFill=0;" parent="1" source="nGB8i2fk9DRMah0tXauJ-66" target="0mpj7hp0uQMTaxLMq2Nd-18" edge="1">
          <mxGeometry relative="1" as="geometry" />
        </mxCell>
        <mxCell id="0mpj7hp0uQMTaxLMq2Nd-43" value="创建" style="edgeStyle=orthogonalEdgeStyle;curved=1;rounded=0;sketch=1;orthogonalLoop=1;jettySize=auto;html=1;exitX=1;exitY=0.5;exitDx=0;exitDy=0;entryX=0.5;entryY=0;entryDx=0;entryDy=0;endArrow=block;endFill=0;" parent="1" source="0mpj7hp0uQMTaxLMq2Nd-8" target="0mpj7hp0uQMTaxLMq2Nd-27" edge="1">
          <mxGeometry relative="1" as="geometry" />
        </mxCell>
        <mxCell id="0mpj7hp0uQMTaxLMq2Nd-45" value="MappedStatement" style="swimlane;fontStyle=1;align=center;verticalAlign=top;childLayout=stackLayout;horizontal=1;startSize=30;horizontalStack=0;resizeParent=1;resizeParentMax=0;resizeLast=0;collapsible=0;marginBottom=0;html=1;sketch=1;fillColor=#dae8fc;strokeColor=#6c8ebf;" parent="1" vertex="1">
          <mxGeometry x="1200" y="-920" width="295" height="140" as="geometry" />
        </mxCell>
        <mxCell id="0mpj7hp0uQMTaxLMq2Nd-46" value="" style="swimlane;fontStyle=1;align=center;verticalAlign=top;horizontal=1;startSize=0;collapsible=0;marginBottom=0;html=1;strokeColor=none;fillColor=none;sketch=1;" parent="0mpj7hp0uQMTaxLMq2Nd-45" vertex="1">
          <mxGeometry y="30" width="295" height="110" as="geometry" />
        </mxCell>
        <mxCell id="0mpj7hp0uQMTaxLMq2Nd-47" value="id:记录对应的哪个方法(类全称+方法名)&#xa;sqlCommandType:哪种类型sql(select,delete...)&#xa;parameterType:参数类型&#xa;resultType:返回结果类型&#xa;sql:完整的sql语句&#xa;parameter:参数值" style="fontStyle=0;sketch=1;align=left;" parent="0mpj7hp0uQMTaxLMq2Nd-46" vertex="1">
          <mxGeometry x="6.25" y="10" width="283.75" height="90" as="geometry" />
        </mxCell>
        <mxCell id="0mpj7hp0uQMTaxLMq2Nd-62" value="j" style="edgeStyle=orthogonalEdgeStyle;curved=1;rounded=0;sketch=1;orthogonalLoop=1;jettySize=auto;html=1;exitX=1;exitY=0.5;exitDx=0;exitDy=0;entryX=1;entryY=0.5;entryDx=0;entryDy=0;endArrow=block;endFill=0;" parent="1" source="0mpj7hp0uQMTaxLMq2Nd-59" target="0mpj7hp0uQMTaxLMq2Nd-53" edge="1">
          <mxGeometry relative="1" as="geometry" />
        </mxCell>
        <mxCell id="0mpj7hp0uQMTaxLMq2Nd-65" value="将Mapper文件对应的接口类&lt;br&gt;包装成MapperProxyFactory&lt;br&gt;注册进缓存中" style="edgeLabel;html=1;align=center;verticalAlign=middle;resizable=0;points=[];" parent="0mpj7hp0uQMTaxLMq2Nd-62" vertex="1" connectable="0">
          <mxGeometry x="-0.3856" y="-2" relative="1" as="geometry">
            <mxPoint y="-6" as="offset" />
          </mxGeometry>
        </mxCell>
        <mxCell id="0mpj7hp0uQMTaxLMq2Nd-59" value="Mapper.class" style="ellipse;whiteSpace=wrap;html=1;sketch=1;" parent="1" vertex="1">
          <mxGeometry x="1200" y="-740" width="120" height="80" as="geometry" />
        </mxCell>
        <mxCell id="0mpj7hp0uQMTaxLMq2Nd-64" style="edgeStyle=orthogonalEdgeStyle;curved=1;rounded=0;sketch=1;orthogonalLoop=1;jettySize=auto;html=1;exitX=1;exitY=1;exitDx=0;exitDy=0;entryX=1;entryY=0.5;entryDx=0;entryDy=0;endArrow=block;endFill=0;" parent="1" source="0mpj7hp0uQMTaxLMq2Nd-46" target="0mpj7hp0uQMTaxLMq2Nd-54" edge="1">
          <mxGeometry relative="1" as="geometry" />
        </mxCell>
        <mxCell id="0mpj7hp0uQMTaxLMq2Nd-67" value="将映射语句类注册到缓存中" style="edgeLabel;html=1;align=center;verticalAlign=middle;resizable=0;points=[];" parent="0mpj7hp0uQMTaxLMq2Nd-64" vertex="1" connectable="0">
          <mxGeometry x="-0.466" y="-7" relative="1" as="geometry">
            <mxPoint as="offset" />
          </mxGeometry>
        </mxCell>
        <mxCell id="0mpj7hp0uQMTaxLMq2Nd-70" value="创建" style="edgeStyle=orthogonalEdgeStyle;curved=1;rounded=0;sketch=1;orthogonalLoop=1;jettySize=auto;html=1;exitX=1;exitY=0.5;exitDx=0;exitDy=0;entryX=0.5;entryY=0;entryDx=0;entryDy=0;endArrow=block;endFill=0;" parent="1" source="nGB8i2fk9DRMah0tXauJ-29" target="nGB8i2fk9DRMah0tXauJ-39" edge="1">
          <mxGeometry x="-0.2105" relative="1" as="geometry">
            <Array as="points">
              <mxPoint x="1230" y="145" />
              <mxPoint x="1230" y="210" />
              <mxPoint x="1165" y="210" />
            </Array>
            <mxPoint as="offset" />
          </mxGeometry>
        </mxCell>
        <mxCell id="0mpj7hp0uQMTaxLMq2Nd-79" style="edgeStyle=orthogonalEdgeStyle;curved=1;rounded=0;sketch=1;orthogonalLoop=1;jettySize=auto;html=1;exitX=0.5;exitY=1;exitDx=0;exitDy=0;entryX=0.5;entryY=0;entryDx=0;entryDy=0;endArrow=block;endFill=0;" parent="1" source="nGB8i2fk9DRMah0tXauJ-78" target="nGB8i2fk9DRMah0tXauJ-65" edge="1">
          <mxGeometry relative="1" as="geometry" />
        </mxCell>
        <mxCell id="0mpj7hp0uQMTaxLMq2Nd-80" value="创建" style="edgeLabel;html=1;align=center;verticalAlign=middle;resizable=0;points=[];" parent="0mpj7hp0uQMTaxLMq2Nd-79" vertex="1" connectable="0">
          <mxGeometry x="0.2708" relative="1" as="geometry">
            <mxPoint as="offset" />
          </mxGeometry>
        </mxCell>
        <mxCell id="0mpj7hp0uQMTaxLMq2Nd-83" style="edgeStyle=orthogonalEdgeStyle;curved=1;rounded=0;sketch=1;orthogonalLoop=1;jettySize=auto;html=1;exitX=1;exitY=0.5;exitDx=0;exitDy=0;entryX=0;entryY=0.5;entryDx=0;entryDy=0;endArrow=block;endFill=0;" parent="1" source="0mpj7hp0uQMTaxLMq2Nd-31" target="0mpj7hp0uQMTaxLMq2Nd-81" edge="1">
          <mxGeometry relative="1" as="geometry" />
        </mxCell>
        <mxCell id="0mpj7hp0uQMTaxLMq2Nd-87" value="获取映射器对象" style="edgeLabel;html=1;align=center;verticalAlign=middle;resizable=0;points=[];" parent="0mpj7hp0uQMTaxLMq2Nd-83" vertex="1" connectable="0">
          <mxGeometry x="-0.2902" y="-10" relative="1" as="geometry">
            <mxPoint as="offset" />
          </mxGeometry>
        </mxCell>
        <mxCell id="0mpj7hp0uQMTaxLMq2Nd-84" style="edgeStyle=orthogonalEdgeStyle;curved=1;rounded=0;sketch=1;orthogonalLoop=1;jettySize=auto;html=1;exitX=0;exitY=0.75;exitDx=0;exitDy=0;entryX=0;entryY=0.5;entryDx=0;entryDy=0;endArrow=block;endFill=0;" parent="1" source="0mpj7hp0uQMTaxLMq2Nd-81" target="0mpj7hp0uQMTaxLMq2Nd-82" edge="1">
          <mxGeometry relative="1" as="geometry">
            <Array as="points">
              <mxPoint x="960" y="-227" />
              <mxPoint x="960" y="-5" />
            </Array>
          </mxGeometry>
        </mxCell>
        <mxCell id="0mpj7hp0uQMTaxLMq2Nd-88" value="获取映射器对象" style="edgeLabel;html=1;align=center;verticalAlign=middle;resizable=0;points=[];" parent="0mpj7hp0uQMTaxLMq2Nd-84" vertex="1" connectable="0">
          <mxGeometry x="-0.1484" y="-1" relative="1" as="geometry">
            <mxPoint as="offset" />
          </mxGeometry>
        </mxCell>
        <mxCell id="0mpj7hp0uQMTaxLMq2Nd-85" style="edgeStyle=orthogonalEdgeStyle;curved=1;rounded=0;sketch=1;orthogonalLoop=1;jettySize=auto;html=1;exitX=1;exitY=0.75;exitDx=0;exitDy=0;entryX=1;entryY=0.5;entryDx=0;entryDy=0;endArrow=block;endFill=0;" parent="1" source="0mpj7hp0uQMTaxLMq2Nd-53" target="0mpj7hp0uQMTaxLMq2Nd-52" edge="1">
          <mxGeometry relative="1" as="geometry">
            <Array as="points">
              <mxPoint x="1320" y="-327" />
              <mxPoint x="1320" y="-50" />
            </Array>
          </mxGeometry>
        </mxCell>
        <mxCell id="0mpj7hp0uQMTaxLMq2Nd-86" value="注册MapperProxyFactory" style="edgeLabel;html=1;align=center;verticalAlign=middle;resizable=0;points=[];" parent="0mpj7hp0uQMTaxLMq2Nd-85" vertex="1" connectable="0">
          <mxGeometry x="-0.1902" y="1" relative="1" as="geometry">
            <mxPoint y="33" as="offset" />
          </mxGeometry>
        </mxCell>
        <mxCell id="0mpj7hp0uQMTaxLMq2Nd-89" value="调用映射器工厂创建映射器" style="edgeStyle=orthogonalEdgeStyle;curved=1;rounded=0;sketch=1;orthogonalLoop=1;jettySize=auto;html=1;exitX=0;exitY=0.75;exitDx=0;exitDy=0;entryX=0;entryY=0.5;entryDx=0;entryDy=0;endArrow=block;endFill=0;" parent="1" source="0mpj7hp0uQMTaxLMq2Nd-82" target="nGB8i2fk9DRMah0tXauJ-29" edge="1">
          <mxGeometry relative="1" as="geometry">
            <Array as="points">
              <mxPoint x="960" y="3" />
              <mxPoint x="960" y="145" />
            </Array>
          </mxGeometry>
        </mxCell>
        <mxCell id="0mpj7hp0uQMTaxLMq2Nd-90" style="edgeStyle=orthogonalEdgeStyle;curved=1;rounded=0;sketch=1;orthogonalLoop=1;jettySize=auto;html=1;exitX=0;exitY=0.5;exitDx=0;exitDy=0;entryX=1;entryY=0.5;entryDx=0;entryDy=0;endArrow=block;endFill=0;" parent="1" source="nGB8i2fk9DRMah0tXauJ-90" target="nGB8i2fk9DRMah0tXauJ-56" edge="1">
          <mxGeometry relative="1" as="geometry" />
        </mxCell>
        <mxCell id="0mpj7hp0uQMTaxLMq2Nd-91" value="获取缓存中当前要执行的方法&lt;br&gt;然后调用" style="edgeLabel;html=1;align=center;verticalAlign=middle;resizable=0;points=[];" parent="0mpj7hp0uQMTaxLMq2Nd-90" vertex="1" connectable="0">
          <mxGeometry x="0.138" y="8" relative="1" as="geometry">
            <mxPoint as="offset" />
          </mxGeometry>
        </mxCell>
        <mxCell id="0mpj7hp0uQMTaxLMq2Nd-92" value="根据当前Mapper方法的类型&lt;br&gt;执行SqlSession中相应类型的方法" style="edgeStyle=orthogonalEdgeStyle;curved=1;rounded=0;sketch=1;orthogonalLoop=1;jettySize=auto;html=1;exitX=0;exitY=0.5;exitDx=0;exitDy=0;entryX=1;entryY=0.5;entryDx=0;entryDy=0;endArrow=block;endFill=0;" parent="1" source="nGB8i2fk9DRMah0tXauJ-56" target="0mpj7hp0uQMTaxLMq2Nd-19" edge="1">
          <mxGeometry relative="1" as="geometry" />
        </mxCell>
        <mxCell id="0mpj7hp0uQMTaxLMq2Nd-93" value="将Mapper接口中&lt;br&gt;要执行的方法进行包装&lt;br&gt;后缓存" style="ellipse;shape=cloud;whiteSpace=wrap;html=1;sketch=1;dashed=1;" parent="1" vertex="1">
          <mxGeometry x="1410" y="390" width="190" height="90" as="geometry" />
        </mxCell>
        <mxCell id="0mpj7hp0uQMTaxLMq2Nd-95" style="edgeStyle=orthogonalEdgeStyle;curved=1;rounded=0;sketch=1;orthogonalLoop=1;jettySize=auto;html=1;exitX=1;exitY=0.5;exitDx=0;exitDy=0;entryX=0.07;entryY=0.4;entryDx=0;entryDy=0;entryPerimeter=0;endArrow=block;endFill=0;" parent="1" source="0mpj7hp0uQMTaxLMq2Nd-75" target="0mpj7hp0uQMTaxLMq2Nd-93" edge="1">
          <mxGeometry relative="1" as="geometry" />
        </mxCell>
        <mxCell id="M2KRNUnM-0Gk1UZxK74u-1" value="&lt;b&gt;BaseBuilder&lt;/b&gt;" style="swimlane;fontStyle=1;align=center;verticalAlign=top;childLayout=stackLayout;horizontal=1;startSize=30;horizontalStack=0;resizeParent=1;resizeParentMax=0;resizeLast=0;collapsible=0;marginBottom=0;html=1;sketch=1;fillColor=#f8cecc;strokeColor=#b85450;" vertex="1" parent="1">
          <mxGeometry x="545" y="-1030" width="260" height="90" as="geometry" />
        </mxCell>
        <mxCell id="M2KRNUnM-0Gk1UZxK74u-2" value="" style="swimlane;fontStyle=1;align=center;verticalAlign=top;horizontal=1;startSize=0;collapsible=0;marginBottom=0;html=1;strokeColor=none;fillColor=none;sketch=1;" vertex="1" parent="M2KRNUnM-0Gk1UZxK74u-1">
          <mxGeometry y="30" width="260" height="60" as="geometry" />
        </mxCell>
        <mxCell id="M2KRNUnM-0Gk1UZxK74u-6" value="Configuation" style="fontStyle=0;sketch=1;" vertex="1" parent="M2KRNUnM-0Gk1UZxK74u-2">
          <mxGeometry x="50" y="10" width="160" height="30" as="geometry" />
        </mxCell>
        <mxCell id="M2KRNUnM-0Gk1UZxK74u-9" style="edgeStyle=orthogonalEdgeStyle;curved=1;rounded=0;sketch=1;orthogonalLoop=1;jettySize=auto;html=1;exitX=1.003;exitY=0.066;exitDx=0;exitDy=0;entryX=0.998;entryY=0.191;entryDx=0;entryDy=0;entryPerimeter=0;exitPerimeter=0;" edge="1" parent="1" source="nGB8i2fk9DRMah0tXauJ-92" target="M2KRNUnM-0Gk1UZxK74u-1">
          <mxGeometry relative="1" as="geometry" />
        </mxCell>
        <mxCell id="M2KRNUnM-0Gk1UZxK74u-11" value="继承" style="edgeLabel;html=1;align=center;verticalAlign=middle;resizable=0;points=[];" vertex="1" connectable="0" parent="M2KRNUnM-0Gk1UZxK74u-9">
          <mxGeometry x="-0.2618" relative="1" as="geometry">
            <mxPoint as="offset" />
          </mxGeometry>
        </mxCell>
      </root>
    </mxGraphModel>
  </diagram>
</mxfile>
